<?xml version="1.0" encoding="UTF-8"?>
<svg xmlns="http://www.w3.org/2000/svg" xmlns:xlink="http://www.w3.org/1999/xlink" width="0" height="0">
<symbol id="clocl" width="62" height="64" viewBox="0 0 62 64" fill="none">
<path d="M61.5933 30.6025C61.5899 13.6978 47.8828 -0.00341734 30.9775 6.39362e-07C14.0728 0.00341861 0.371583 13.7109 0.375001 30.6157C0.37793 43.9316 8.98877 55.7178 21.6738 59.7681C21.7949 59.8062 21.9209 59.8257 22.0474 59.8252C22.2886 59.8247 22.5249 59.7603 22.7324 59.6377C23.0024 59.478 23.2041 59.2241 23.2988 58.9248L31.0288 34.4248C33.1421 34.4141 34.8462 32.6919 34.835 30.5791C34.8242 28.4658 33.1025 26.7617 30.9893 26.7725C30.4209 26.7749 29.8599 26.9058 29.3491 27.1553L19.1372 16.9419C18.6304 16.4526 17.8232 16.4668 17.334 16.9731C16.8564 17.4678 16.8564 18.251 17.334 18.7456L27.5405 28.9639C26.7573 30.5625 27.2051 32.4922 28.6133 33.582L21.248 56.9277C6.69238 51.5659 -0.760742 35.4199 4.60108 20.8643C9.96289 6.30859 26.1089 -1.14453 40.6646 4.21729C55.2202 9.5791 62.6733 25.7256 57.3115 40.2808C54.6919 47.3921 49.3096 53.1431 42.3872 56.2275L41.5913 52.479C41.4458 51.79 40.7686 51.3496 40.0796 51.4956C39.8623 51.542 39.6606 51.6441 39.4946 51.792L31.8208 58.6431C31.2944 59.1113 31.2476 59.9175 31.7163 60.4439C31.8687 60.6148 32.064 60.7417 32.2827 60.8115L42.0801 63.9385C42.7505 64.1538 43.4688 63.7852 43.6841 63.1143C43.7524 62.9024 43.7637 62.6768 43.7178 62.459L42.9356 58.7808C54.2642 54.0049 61.6196 42.8965 61.5933 30.6025ZM30.9844 29.3272C31.6885 29.3272 32.2598 29.8984 32.2598 30.6025C32.2598 31.3071 31.6885 31.8779 30.9844 31.8779C30.2798 31.8779 29.709 31.3071 29.709 30.6025C29.709 29.8984 30.2798 29.3272 30.9844 29.3272ZM35.1851 59.0552L39.5532 55.1587L40.7588 60.8394L35.1851 59.0552Z" fill="#2E2F42"/>
</symbol>

<symbol id="pc" width="64" height="50" viewBox="0 0 64 50" fill="none">
<path d="M3.19833 49.5819H54.3715C56.1378 49.5819 57.5699 48.1499 57.5699 46.3836V42.1192C57.5699 40.3529 56.1378 38.9209 54.3715 38.9209H53.3054V12.3343L59.3611 6.59768C60.7666 7.29055 62.4678 6.86993 63.3876 5.60029C64.308 4.33116 64.1789 2.58364 63.0826 1.46339C61.9863 0.343142 60.2424 0.176042 58.953 1.06776C57.6641 1.96 57.206 3.65131 57.8681 5.07192L53.3054 9.39726V6.93761C53.3054 5.17134 51.8734 3.73928 50.1071 3.73928H7.46276C5.6965 3.73928 4.26443 5.17134 4.26443 6.93761V38.9209H3.19833C1.43206 38.9209 0 40.3529 0 42.1192V46.3836C0 48.1499 1.43206 49.5819 3.19833 49.5819ZM60.7682 2.67317C61.3569 2.67317 61.8343 3.15053 61.8343 3.73928C61.8343 4.32803 61.3569 4.80539 60.7682 4.80539C60.1794 4.80539 59.7021 4.32803 59.7021 3.73928C59.7021 3.15053 60.1794 2.67317 60.7682 2.67317ZM6.39665 6.93761C6.39665 6.34885 6.874 5.8715 7.46276 5.8715H50.1071C50.6958 5.8715 51.1732 6.34885 51.1732 6.93761V11.4149L49.041 13.441V9.06982C49.041 8.48107 48.5636 8.00371 47.9749 8.00371H9.59498C9.00622 8.00371 8.52887 8.48107 8.52887 9.06982V35.7225C8.52887 36.3113 9.00622 36.7886 9.59498 36.7886H47.9749C48.5636 36.7886 49.041 36.3113 49.041 35.7225V16.3738L51.1732 14.3535V38.9209H6.39665V6.93761ZM15.9916 20.797C14.5492 20.7929 13.2826 21.7538 12.899 23.1442C12.5153 24.5346 13.1093 26.0094 14.3498 26.7455C15.5898 27.4815 17.1697 27.2967 18.2061 26.2936L21.912 28.1531C22.3425 28.3686 22.8646 28.2676 23.1847 27.9079L31.0624 19.0453L38.8062 24.848C39.2216 25.1593 39.8016 25.126 40.1784 24.7694L46.9088 18.3941V34.6564H10.6611V10.1359H46.9088V15.4566L39.3658 22.5997L31.5569 16.7455C31.1134 16.4134 30.4892 16.4758 30.1207 16.8897L22.1348 25.8751L19.1493 24.3821C19.1712 24.2541 19.1847 24.125 19.19 23.9953C19.19 22.2291 17.7579 20.797 15.9916 20.797ZM17.0577 23.9953C17.0577 24.5841 16.5804 25.0615 15.9916 25.0615C15.4029 25.0615 14.9255 24.5841 14.9255 23.9953C14.9255 23.4066 15.4029 22.9292 15.9916 22.9292C16.5804 22.9292 17.0577 23.4066 17.0577 23.9953ZM23.4544 41.0531H34.1155V42.1192C34.1155 42.7079 33.6381 43.1853 33.0494 43.1853H24.5205C23.9317 43.1853 23.4544 42.7079 23.4544 42.1192V41.0531ZM2.13222 42.1192C2.13222 41.5304 2.60957 41.0531 3.19833 41.0531H21.3222V42.1192C21.3222 43.8855 22.7542 45.3175 24.5205 45.3175H33.0494C34.8156 45.3175 36.2477 43.8855 36.2477 42.1192V41.0531H54.3715C54.9603 41.0531 55.4376 41.5304 55.4376 42.1192V46.3836C55.4376 46.9724 54.9603 47.4497 54.3715 47.4497H3.19833C2.60957 47.4497 2.13222 46.9724 2.13222 46.3836V42.1192Z" fill="#2E2F42"/>
</symbol>

<symbol id="robot" width="51" height="57" viewBox="0 0 51 57" fill="none">
<path d="M49.4295 24.3189C48.8546 23.5434 48.0109 23.0443 47.053 22.9098C46.0908 22.7733 45.1414 23.026 44.3734 23.6138L41.8699 25.5327L41.8688 25.5338L38.0734 28.368L35.3577 27.2864C40.2004 25.1136 43.585 20.2698 43.585 14.6462C43.585 7.00017 37.3396 0.779327 29.6627 0.779327C21.9858 0.779327 15.7405 7.00017 15.7405 14.6462C15.7405 17.4175 16.5692 19.9945 17.9805 22.163L12.4529 22.115C12.4497 22.115 12.4465 22.115 12.4433 22.115C12.4262 22.115 12.4124 22.1235 12.3964 22.1247C12.2908 22.1289 12.1873 22.1503 12.086 22.1865C12.0604 22.1962 12.0338 22.2015 12.0093 22.2132C11.9965 22.2185 11.9837 22.2195 11.9709 22.2259L5.50468 25.4185C5.50356 25.4185 5.50256 25.4185 5.50256 25.4195L1.71575 27.2405C1.67412 27.2586 1.6315 27.2831 1.58987 27.3109C0.0804746 28.3156 -0.433659 30.289 0.393104 31.9018C0.833611 32.7594 1.5835 33.391 2.50514 33.68C2.86039 33.7908 3.22302 33.8453 3.58353 33.8453C4.16279 33.8453 4.73667 33.7035 5.26243 33.423L8.03798 31.9467L12.566 29.6085L15.2797 29.5925L4.39629 40.4237C4.39529 40.4248 4.39417 40.4248 4.39304 40.4258L1.71563 43.0925C1.08312 43.7219 0.73536 44.557 0.73536 45.4478C0.73536 46.3374 1.08312 47.1747 1.71563 47.8052C2.36526 48.4516 3.21965 48.7758 4.07404 48.7758C4.92955 48.7758 5.78281 48.4516 6.43457 47.8052L9.06287 45.1875L12.5445 42.588L14.3462 44.3821L10.8229 47.8904C10.8219 47.8916 10.8208 47.8916 10.8196 47.8926L8.14223 50.5592C7.50972 51.1886 7.16196 52.0237 7.16196 52.9145C7.16196 53.8041 7.50972 54.6414 8.14223 55.2719C8.79186 55.9183 9.64738 56.2426 10.5018 56.2426C11.3562 56.2426 12.2117 55.9183 12.8623 55.2719L15.5407 52.6052L19.8255 48.3386C19.8267 48.3374 19.8267 48.3364 19.8277 48.3353L21.8469 46.3353L21.8394 46.3278C21.8522 46.315 21.8703 46.3106 21.8832 46.2969L32.2151 34.9805L39.1571 35.9682C39.2072 35.9757 39.2573 35.9789 39.3075 35.9789C39.4366 35.9789 39.5613 35.948 39.6819 35.9021C39.7171 35.8894 39.748 35.8722 39.7811 35.8552C39.8195 35.836 39.86 35.8254 39.8964 35.8009L46.3231 31.5342C46.3466 31.5182 46.3593 31.4925 46.3817 31.4755C46.4073 31.4553 46.4393 31.4468 46.4627 31.4243L49.0056 29.0424C50.3288 27.8026 50.5111 25.7717 49.4295 24.3189ZM4.26079 31.5403C3.91416 31.7259 3.52053 31.7632 3.14402 31.6438C2.77064 31.5275 2.46776 31.2725 2.29063 30.928C1.9685 30.3008 2.15513 29.537 2.71939 29.1243L5.34668 27.8602L5.97919 29.7088L6.24482 30.4853L4.26079 31.5403ZM11.255 27.8849L8.15848 29.4849L7.64759 27.9915L7.28071 26.9184L11.3342 24.9172L11.255 27.8849ZM41.4539 14.644C41.4539 16.4808 41.0155 18.2132 40.256 19.763L31.8932 15.9646C31.8057 14.8179 31.2106 13.8142 30.3167 13.189L33.2447 3.46837C38.0001 4.98102 41.4539 9.41733 41.4539 14.644ZM17.876 14.644C17.876 8.17456 23.1646 2.91049 29.6649 2.91049C30.1706 2.91049 30.6655 2.95311 31.1551 3.01499L28.291 12.5224C28.2527 12.5213 28.2164 12.5106 28.1769 12.5106C26.1118 12.5106 24.4317 14.1853 24.4317 16.2441C24.4317 18.3027 26.1118 19.9775 28.1769 19.9775C29.5657 19.9775 30.7657 19.2106 31.4132 18.0883L39.1381 21.5978C36.9887 24.4906 33.5486 26.3776 29.6648 26.3776C23.1646 26.3776 17.876 21.1135 17.876 14.644ZM29.7887 16.2441C29.7887 17.1262 29.0654 17.8441 28.1769 17.8441C27.2884 17.8441 26.5651 17.1262 26.5651 16.2441C26.5651 15.3619 27.2884 14.644 28.1769 14.644C29.0654 14.644 29.7887 15.3619 29.7887 16.2441ZM4.92968 46.2925C4.45717 46.7608 3.69228 46.7598 3.2209 46.2936C2.99365 46.0664 2.86889 45.7668 2.86889 45.4478C2.86889 45.1299 2.99365 44.8301 3.2209 44.6051L5.14505 42.6882L6.84746 44.3832L4.92968 46.2925ZM11.3574 53.7594C10.8849 54.2276 10.119 54.2288 9.6475 53.7605C9.42025 53.5333 9.29549 53.2336 9.29549 52.9146C9.29549 52.5967 9.42025 52.297 9.6475 52.072L11.5729 50.1541L12.3783 50.9552L13.2764 51.8491L11.3574 53.7594ZM18.3208 46.8217C18.3196 46.8227 18.3186 46.8227 18.3175 46.8238L14.7878 50.3438L13.9824 49.5427L13.0843 48.6488L16.6107 45.1384C16.6107 45.1384 16.6107 45.1384 16.6107 45.1374C16.6119 45.1363 16.6129 45.1363 16.614 45.1353C16.694 45.0553 16.7441 44.9593 16.7932 44.8644C16.8071 44.8366 16.8337 44.8131 16.8455 44.7844C16.8786 44.7023 16.8839 44.6138 16.8967 44.5272C16.9031 44.4781 16.9245 44.4324 16.9245 44.3821C16.9245 44.3106 16.8989 44.2414 16.884 44.1709C16.8712 44.1069 16.8712 44.0417 16.8466 43.98C16.8061 43.8797 16.7367 43.7912 16.6642 43.7047C16.644 43.6812 16.6365 43.6514 16.6141 43.629C16.6141 43.629 16.6141 43.629 16.613 43.629C16.6119 43.628 16.6119 43.6257 16.6109 43.6247L13.3969 40.4247C13.3628 40.3906 13.3191 40.3767 13.2807 40.3479C13.2242 40.3042 13.1698 40.2637 13.1068 40.2327C13.0461 40.2028 12.9842 40.1847 12.9202 40.1676C12.8519 40.1483 12.7858 40.1334 12.7143 40.1281C12.6492 40.1238 12.5884 40.1302 12.5234 40.1377C12.4519 40.1462 12.3848 40.1558 12.3154 40.1782C12.2482 40.1996 12.1885 40.2326 12.1267 40.2678C12.0872 40.2902 12.0424 40.2977 12.005 40.3254L8.45836 42.973L6.6567 41.1788L11.4547 36.4065L20.1759 44.9838L18.3208 46.8217ZM31.9584 32.7883C31.9275 32.7841 31.8986 32.7958 31.8677 32.7937C31.7898 32.7894 31.7152 32.7948 31.6373 32.8076C31.5766 32.8182 31.519 32.8299 31.4613 32.8502C31.3931 32.8737 31.3312 32.9057 31.2682 32.9441C31.2085 32.9803 31.1541 33.0187 31.1018 33.0667C31.0762 33.0891 31.0453 33.0998 31.0218 33.1253L21.6253 43.4167L12.9692 34.9035L18.6354 29.2671C19.0525 28.8511 19.0546 28.1759 18.6386 27.7577C18.4285 27.5476 18.1523 27.4441 17.876 27.4452V27.4442L13.4386 27.4709L13.4941 24.2559L19.7022 24.3093C22.2323 26.8971 25.7609 28.511 29.6649 28.511C30.5396 28.511 31.393 28.4204 32.2239 28.2656C32.3039 28.3296 32.3827 28.3948 32.4831 28.4353L37.3024 30.3553L37.6074 31.8721L37.9637 33.6427L31.9584 32.7883ZM40.0406 33.1446L39.4145 30.0288L42.3073 27.8687L43.0647 28.8735L44.2007 30.3818L40.0406 33.1446ZM47.5478 27.4826L45.8721 29.0528L44.0097 26.5802L45.6726 25.3056C45.9829 25.0667 46.3745 24.9696 46.7585 25.0197C47.1446 25.0741 47.486 25.2757 47.7185 25.5882C48.1516 26.1717 48.078 26.9856 47.5478 27.4826Z" fill="#2E2F42"/>
</symbol>

<symbol id="scop" width="60" height="64" viewBox="0 0 60 64" fill="none">
<path d="M59.5463 44.1952L42.6599 27.1851L44.534 17.9541C45.0176 18.1429 45.5318 18.2416 46.0508 18.2453H46.0636C48.4482 18.2735 50.404 16.3633 50.4323 13.9788C50.4606 11.5943 48.5503 9.6384 46.1658 9.61013C43.7812 9.582 41.8254 11.4921 41.7971 13.8767C41.7911 14.3869 41.8755 14.8941 42.0466 15.3749L32.1266 16.5856L15.9452 0.32C15.7467 0.117467 15.4757 0.00226667 15.1921 0C14.9121 0.00146667 14.644 0.112933 14.4455 0.3104L11.4204 3.3184C11.004 3.73493 11.004 4.41013 11.4204 4.82667L13.0481 6.47787C6.74201 18.0737 8.79028 32.4335 18.0871 41.8037C18.1724 41.8853 18.2713 41.9513 18.3793 41.9989C18.3121 42.3599 18.2771 42.7261 18.2748 43.0933V55.4667H5.47481C2.53081 55.4701 0.144946 57.856 0.141479 60.8V62.9333C0.141479 63.5224 0.61908 64 1.20815 64H50.2748C50.8639 64 51.3415 63.5224 51.3415 62.9333V60.8C51.338 57.856 48.9522 55.4701 46.0082 55.4667H33.2082V49.9829C35.2134 50.4035 37.2564 50.6179 39.3052 50.6229C44.2215 50.6176 49.0595 49.392 53.3852 47.056L55.0215 48.7019C55.22 48.9044 55.491 49.0196 55.7746 49.0219C56.0546 49.0204 56.3227 48.9089 56.5212 48.7115L59.5463 45.7035C59.9627 45.2869 59.9627 44.6117 59.5463 44.1952ZM44.5596 12.4661C45.395 11.6352 46.7458 11.6389 47.5766 12.4743C48.4075 13.3096 48.4038 14.6604 47.5684 15.4912C47.1686 15.8889 46.6275 16.1121 46.0635 16.112H46.0571C44.879 16.1059 43.9287 15.1459 43.9348 13.9676C43.9378 13.4036 44.1639 12.8639 44.5638 12.4661H44.5596ZM42.0487 19.4752L40.8519 25.3664L38.5009 23.0016L42.0487 19.4752ZM40.837 17.6715L36.997 21.4891L34.0263 18.5024L40.837 17.6715ZM46.0082 57.6C47.7755 57.6 49.2082 59.0327 49.2082 60.8V61.8667H2.27481V60.8C2.27481 59.0327 3.70748 57.6 5.47481 57.6H46.0082ZM31.0748 53.3333V55.4667H20.4081V53.3333H31.0748ZM20.4081 51.2V43.0933C20.4081 40.5056 22.8007 38.4 25.7415 38.4C28.6823 38.4 31.0748 40.5056 31.0748 43.0933V51.2H20.4081ZM33.2082 47.808V43.0933C33.2082 39.3291 29.8588 36.2667 25.7415 36.2667C23.0793 36.2259 20.59 37.5809 19.1793 39.8389C11.0639 31.2913 9.23641 18.5485 14.6221 8.06467L51.8258 45.4816C46.081 48.404 39.4955 49.2268 33.2082 47.808ZM55.7863 46.4405L54.2834 44.9291L15.1815 5.59147L13.6721 4.07893L15.1815 2.57493L31.0513 18.5344C31.0588 18.5344 31.0631 18.5483 31.0706 18.5536L57.2999 44.9365L55.7863 46.4405Z" fill="#2E2F42"/>
</symbol>

</svg>
